<svg xmlns="http://www.w3.org/2000/svg" width="300" height="300" viewBox="0 0 300 300">
<defs><linearGradient id="wood" x1="0" y1="0" x2="1" y2="1"><stop stop-color="#543820"/><stop offset="0.55" stop-color="#2a1b11"/><stop offset="1" stop-color="#120c08"/></linearGradient><radialGradient id="paper"><stop offset="0" stop-color="#d9bd8b"/><stop offset="0.75" stop-color="#c5a475"/><stop offset="1" stop-color="#af885c"/></radialGradient></defs>
<rect x="1" y="1" width="298" height="298" rx="3" fill="#0a0705" stroke="#050403" stroke-width="2"/>
<rect x="3" y="3" width="294" height="294" rx="3" fill="url(#wood)" stroke="#6d4c2d" stroke-width="2"/>
<rect x="18" y="16" width="264" height="268" rx="2" fill="url(#paper)" stroke="#7e5a34" stroke-width="1.5"/>
<rect x="23" y="21" width="254" height="258" fill="none" stroke="#7b5c3b" stroke-width="0.7" opacity="0.45"/>
<g fill="#7f603d" opacity="0.08"><circle cx="57" cy="58" r="24"/><circle cx="239" cy="79" r="18"/><circle cx="95" cy="228" r="28"/><circle cx="238" cy="245" r="21"/></g>
<path d="M32 267 C45 250 48 240 51 224 M37 260 C28 249 27 241 27 232 M48 249 C61 241 65 234 69 225" fill="none" stroke="#5f6f46" stroke-width="2" opacity="0.25"/>
<g fill="#70563b" stroke="#17110c" stroke-width="1"><circle cx="10" cy="10" r="4"/><circle cx="290" cy="10" r="4"/><circle cx="10" cy="290" r="4"/><circle cx="290" cy="290" r="4"/></g>
</svg>